Coordinates
version=1
nRows=24
nColumns=38
inDegrees=no

Units are S.I. units (second, meters, Newtons, ...)
If the header above contains a line with 'inDegrees', this indicates whether rotational values are in degrees (yes) or radians (no).

endheader
time	pelvis_tilt	pelvis_list	pelvis_rotation	pelvis_tx	pelvis_ty	pelvis_tz	hip_flexion_r	hip_adduction_r	hip_rotation_r	knee_angle_r	ankle_angle_r	subtalar_angle_r	mtp_angle_r	hip_flexion_l	hip_adduction_l	hip_rotation_l	knee_angle_l	ankle_angle_l	subtalar_angle_l	mtp_angle_l	lumbar_extension	lumbar_bending	lumbar_rotation	arm_flex_r	arm_add_r	arm_rot_r	elbow_flex_r	pro_sup_r	wrist_flex_r	wrist_dev_r	arm_flex_l	arm_add_l	arm_rot_l	elbow_flex_l	pro_sup_l	wrist_flex_l	wrist_dev_l
4.61	1.46159	1.44333	-0.00137302	0.828803	0.245409	0.976704	0.0566697	0.10145	-0.0423658	0.237211	0.103668	0	0	-0.0560633	-0.103913	-0.17817	0.0408931	0.0660116	0	0	-0.285321	0.140496	0.156056	0.411329	-0.380408	0.247017	1.18317	1.24166	0	0	0.32689	-0.215442	0.0717207	1.25845	1.36413	0	0
4.62	1.48007	1.44214	-0.0219689	0.828749	0.245511	0.976854	0.0528746	0.102773	-0.0399968	0.234851	0.10239	0	0	-0.0590241	-0.104955	-0.179572	0.0413556	0.0665923	0	0	-0.289898	0.141086	0.156409	0.426407	-0.376931	0.252718	1.1687	1.2406	0	0	0.335101	-0.214246	0.0701855	1.25097	1.36225	0	0
4.63	1.49903	1.44108	-0.0435006	0.828713	0.24563	0.977018	0.0492682	0.103839	-0.0376189	0.233196	0.101123	0	0	-0.062476	-0.105686	-0.18129	0.0412988	0.06701	0	0	-0.294558	0.141327	0.15731	0.441134	-0.373319	0.257575	1.15369	1.24037	0	0	0.343322	-0.212851	0.0690385	1.24314	1.36094	0	0
4.64	1.51653	1.44022	-0.0635868	0.828677	0.245742	0.977167	0.0461663	0.104609	-0.0357041	0.232231	0.100175	0	0	-0.0656583	-0.106103	-0.182955	0.041413	0.0676405	0	0	-0.299014	0.14128	0.158322	0.455625	-0.369833	0.262286	1.13839	1.24007	0	0	0.351743	-0.211347	0.0682762	1.23478	1.36017	0	0
4.65	1.52876	1.43965	-0.0781839	0.828665	0.245877	0.977292	0.0439689	0.105068	-0.0340918	0.231698	0.0999059	0	0	-0.0680129	-0.106266	-0.184538	0.04159	0.0681451	0	0	-0.302817	0.140934	0.159684	0.469015	-0.366866	0.266757	1.12408	1.23908	0	0	0.360457	-0.209539	0.0677251	1.22575	1.35962	0	0
4.66	1.53847	1.43912	-0.0900354	0.828618	0.24602	0.97739	0.0422633	0.105379	-0.0329771	0.231454	0.099907	0	0	-0.0698044	-0.106402	-0.186268	0.0420757	0.0690154	0	0	-0.306329	0.140625	0.161068	0.481803	-0.364446	0.271854	1.11082	1.23787	0	0	0.369169	-0.207537	0.0669808	1.2169	1.35869	0	0
4.67	1.55309	1.43866	-0.106525	0.828566	0.246118	0.97751	0.0398277	0.105589	-0.031779	0.231133	0.100411	0	0	-0.0720124	-0.106451	-0.188513	0.0429483	0.0695419	0	0	-0.310599	0.140021	0.162733	0.494727	-0.362628	0.277328	1.09765	1.23546	0	0	0.378741	-0.205391	0.0673274	1.20757	1.35751	0	0
4.68	1.52432	1.45232	-0.0805706	0.828939	0.246665	0.976046	0.0457702	0.0876023	-0.0422712	0.237031	0.116355	0	0	-0.0680729	-0.0915357	-0.189583	0.0422061	0.0699204	0	0	-0.303894	0.124111	0.159213	0.506559	-0.357257	0.285992	1.08138	1.22254	0	0	0.385701	-0.208214	0.0689709	1.20151	1.3517	0	0
4.69	1.5705	1.43672	-0.127893	0.828243	0.246366	0.977697	0.0361947	0.107079	-0.0278581	0.230029	0.100438	0	0	-0.0757664	-0.107253	-0.192233	0.0429575	0.0692759	0	0	-0.317373	0.141345	0.164133	0.524373	-0.359291	0.295604	1.06738	1.21879	0	0	0.395288	-0.200924	0.0651992	1.18942	1.34978	0	0
4.7	1.57439	1.43605	-0.133281	0.828067	0.246462	0.977742	0.0354372	0.107436	-0.0269775	0.229932	0.100011	0	0	-0.0769484	-0.107452	-0.193113	0.042804	0.069348	0	0	-0.320358	0.141688	0.165896	0.536952	-0.358503	0.300877	1.05461	1.21593	0	0	0.404612	-0.1983	0.0656118	1.18003	1.34675	0	0
4.71	1.579	1.43539	-0.139178	0.827873	0.246543	0.977803	0.0346486	0.107725	-0.0261494	0.22982	0.0990884	0	0	-0.0781852	-0.107633	-0.194231	0.0424983	0.0693638	0	0	-0.323399	0.142155	0.167477	0.550458	-0.358086	0.308464	1.03959	1.21395	0	0	0.41432	-0.194684	0.0629501	1.16891	1.35727	0	0
4.72	1.57978	1.43505	-0.140839	0.827659	0.246623	0.977802	0.034592	0.107766	-0.0256904	0.230132	0.0984889	0	0	-0.0785839	-0.1076	-0.195066	0.0425447	0.0703071	0	0	-0.325983	0.142336	0.169454	0.562207	-0.35852	0.314574	1.02731	1.21254	0	0	0.424351	-0.191546	0.0626968	1.15924	1.35705	0	0
4.73	1.58063	1.43494	-0.142206	0.827406	0.246683	0.977796	0.0346162	0.107578	-0.0255793	0.230597	0.0978481	0	0	-0.0787242	-0.107364	-0.195675	0.0428937	0.0711232	0	0	-0.328557	0.14236	0.171449	0.572997	-0.359176	0.319347	1.01625	1.21466	0	0	0.435008	-0.188172	0.0629968	1.149	1.35388	0	0
4.74	1.58135	1.43484	-0.143022	0.827134	0.246725	0.977788	0.034593	0.107363	-0.0255256	0.230797	0.0977098	0	0	-0.0785394	-0.10716	-0.195926	0.0436497	0.0719989	0	0	-0.331206	0.142524	0.17339	0.583666	-0.360482	0.325124	1.00651	1.21213	0	0	0.44605	-0.184285	0.0627926	1.13809	1.35527	0	0
4.75	1.58095	1.43475	-0.142376	0.826845	0.246744	0.97778	0.0349149	0.107127	-0.0259205	0.231301	0.0983983	0	0	-0.0779049	-0.106989	-0.195646	0.0446768	0.0725192	0	0	-0.333955	0.142801	0.175065	0.594402	-0.361383	0.329781	0.997277	1.21025	0	0	0.457061	-0.180609	0.0630251	1.12751	1.35575	0	0
4.76	1.58197	1.4348	-0.142948	0.826522	0.246744	0.977789	0.0352569	0.106684	-0.0266232	0.232159	0.0988415	0	0	-0.0773812	-0.106649	-0.195699	0.0455587	0.0724704	0	0	-0.336976	0.143024	0.176626	0.605607	-0.361917	0.333969	0.987208	1.20856	0	0	0.468294	-0.176816	0.0637055	1.11648	1.35626	0	0
4.77	1.58372	1.43517	-0.144038	0.826192	0.246737	0.977805	0.0356238	0.105927	-0.0274662	0.233253	0.0992102	0	0	-0.0769745	-0.106043	-0.196076	0.0462226	0.0721856	0	0	-0.340098	0.142936	0.178143	0.616787	-0.362548	0.338062	0.97707	1.20761	0	0	0.479635	-0.173021	0.0652735	1.10555	1.35708	0	0
4.78	1.58339	1.43562	-0.142674	0.825863	0.246701	0.977786	0.0363455	0.105186	-0.0281218	0.234343	0.0997838	0	0	-0.075745	-0.105433	-0.196127	0.0476501	0.0722497	0	0	-0.342869	0.142798	0.17952	0.627788	-0.363414	0.342636	0.967197	1.20723	0	0	0.49134	-0.169071	0.0674811	1.09414	1.35826	0	0
4.79	1.58212	1.43605	-0.140134	0.825534	0.246646	0.977762	0.0368804	0.104648	-0.0280327	0.234553	0.0996111	0	0	-0.0741812	-0.104862	-0.195668	0.0493984	0.0725598	0	0	-0.345349	0.142708	0.180815	0.63872	-0.36413	0.347682	0.956689	1.20649	0	0	0.503643	-0.16483	0.0696731	1.0813	1.36111	0	0
4.8	1.58154	1.43665	-0.138508	0.825223	0.246622	0.977763	0.0376563	0.103829	-0.0283836	0.235453	0.099609	0	0	-0.0731114	-0.104038	-0.195119	0.0506224	0.0729082	0	0	-0.347959	0.142425	0.182355	0.649003	-0.3647	0.35185	0.947362	1.20514	0	0	0.515832	-0.160728	0.0717115	1.06901	1.36343	0	0
4.81	1.58168	1.43731	-0.137591	0.824914	0.246633	0.977792	0.0384899	0.102886	-0.0291635	0.236781	0.0996736	0	0	-0.0723378	-0.103095	-0.194676	0.0515005	0.072968	0	0	-0.350705	0.142155	0.183903	0.658855	-0.36518	0.355017	0.939025	1.20378	0	0	0.52768	-0.156848	0.073678	1.05757	1.3651	0	0
4.82	1.58246	1.43805	-0.137228	0.82461	0.246651	0.977829	0.0393045	0.101856	-0.0300897	0.238289	0.0998282	0	0	-0.0716429	-0.102046	-0.194128	0.0522133	0.0727467	0	0	-0.353473	0.141851	0.185517	0.66873	-0.365825	0.358281	0.930567	1.20231	0	0	0.539986	-0.152964	0.0755188	1.046	1.36661	0	0
4.83	1.58293	1.4388	-0.136624	0.82432	0.246662	0.977862	0.0401737	0.100865	-0.0307448	0.239827	0.099909	0	0	-0.0709248	-0.10102	-0.193484	0.0528312	0.0723897	0	0	-0.356209	0.141505	0.187095	0.678718	-0.366416	0.361776	0.921849	1.20061	0	0	0.5525	-0.149383	0.077142	1.03451	1.36801	0	0
4.84	1.58423	1.43955	-0.136784	0.824047	0.24664	0.977902	0.0408266	0.0999256	-0.0311973	0.241126	0.100111	0	0	-0.0702367	-0.100022	-0.192847	0.0536054	0.072122	0	0	-0.359061	0.141079	0.188603	0.68854	-0.366827	0.364976	0.913001	1.19901	0	0	0.565208	-0.146111	0.0787989	1.0224	1.36919	0	0
